<?xml version="1.0" standalone="no"?>
<!DOCTYPE svg PUBLIC "-//W3C//DTD SVG 20010904//EN"
 "http://www.w3.org/TR/2001/REC-SVG-20010904/DTD/svg10.dtd">
<svg version="1.0" xmlns="http://www.w3.org/2000/svg"
 width="980.000000pt" height="980.000000pt" viewBox="0 0 980.000000 980.000000"
 preserveAspectRatio="xMidYMid meet">
<metadata>
Created by potrace 1.14, written by Peter Selinger 2001-2017
</metadata>
<g transform="translate(0.000000,980.000000) scale(0.100000,-0.100000)"
fill="#000000" stroke="none">
<path d="M5441 7990 c-716 -70 -1386 -447 -1871 -1056 -59 -74 -214 -302 -223
-328 -3 -7 -21 -3 -58 12 -224 97 -396 134 -624 135 -239 0 -397 -38 -608
-145 -406 -208 -695 -582 -852 -1104 -2 -7 -50 -34 -108 -61 -218 -105 -379
-217 -541 -379 -295 -295 -483 -671 -541 -1082 -26 -180 -17 -491 18 -654 174
-802 807 -1394 1608 -1508 105 -15 6588 -14 6695 1 236 33 480 124 684 257
386 250 648 634 752 1098 19 87 22 128 22 339 0 211 -2 252 -22 342 -134 614
-564 1101 -1141 1293 -107 36 -294 80 -338 80 -18 0 -19 10 -20 168 -1 192
-14 327 -48 497 -103 515 -344 966 -714 1336 -417 417 -942 674 -1531 749
-118 15 -426 21 -539 10z m469 -411 c848 -96 1573 -687 1845 -1502 91 -272
121 -504 110 -854 -6 -220 -5 -233 14 -271 24 -47 68 -87 113 -100 18 -6 83
-13 144 -16 321 -16 611 -141 845 -364 201 -191 328 -415 390 -687 18 -82 22
-130 22 -265 0 -234 -37 -390 -139 -591 -183 -358 -513 -610 -914 -696 -81
-17 -230 -18 -3355 -18 -3100 0 -3275 1 -3358 18 -542 110 -983 501 -1151
1020 -54 166 -70 269 -70 462 0 193 16 296 70 463 128 392 395 706 753 885 58
30 137 64 176 78 95 33 139 78 154 156 77 396 338 766 660 937 174 91 309 122
494 113 195 -9 397 -78 560 -190 71 -48 123 -63 187 -52 70 12 112 52 170 167
202 393 489 713 855 954 440 289 927 409 1425 353z"/>
</g>
</svg>
